<svg xmlns="http://www.w3.org/2000/svg" width="255" height="151" fill="none" >
    <path
    fill="#177AE2"
    d="M11.73 1.611h62.327V22.56H31.84l-2.256 14.18c2.922-1.376 5.8-2.407 8.637-3.094 2.879-.688 5.715-1.032 8.508-1.032 9.453 0 17.123 2.858 23.01 8.572 5.886 5.715 8.83 12.913 8.83 21.592 0 6.102-1.526 11.967-4.577 17.596-3.008 5.629-7.305 9.926-12.89 12.89-5.543 2.965-12.655 4.448-21.334 4.448-6.23 0-11.58-.58-16.05-1.74-4.425-1.203-8.206-2.965-11.343-5.285-3.094-2.364-5.607-5.028-7.541-7.993C2.9 79.728 1.289 76.033 0 71.607l26.555-2.9c.644 4.254 2.148 7.498 4.511 9.733 2.364 2.19 5.178 3.287 8.444 3.287 3.652 0 6.66-1.375 9.023-4.125 2.407-2.793 3.61-6.94 3.61-12.44 0-5.629-1.203-9.754-3.61-12.375-2.406-2.621-5.607-3.931-9.603-3.931-2.535 0-4.985.622-7.348 1.869-1.762.902-3.695 2.535-5.8 4.898L3.415 52.4 11.73 1.611ZM89.139 48.469c0-17.961 3.222-30.53 9.668-37.705C105.295 3.588 115.156 0 128.39 0c6.359 0 11.58.795 15.662 2.385 4.082 1.547 7.412 3.588 9.99 6.123 2.578 2.492 4.598 5.135 6.059 7.928 1.503 2.75 2.707 5.972 3.609 9.668 1.762 7.046 2.643 14.394 2.643 22.043 0 17.144-2.901 29.69-8.702 37.64-5.8 7.95-15.791 11.924-29.97 11.924-7.95 0-14.373-1.268-19.272-3.803-4.898-2.535-8.916-6.252-12.053-11.15-2.277-3.48-4.06-8.229-5.35-14.244-1.245-6.059-1.868-12.74-1.868-20.045Zm26.039.064c0 12.032 1.052 20.26 3.158 24.686 2.148 4.383 5.242 6.574 9.281 6.574 2.664 0 4.963-.924 6.897-2.772 1.976-1.89 3.416-4.855 4.318-8.894.945-4.04 1.418-10.334 1.418-18.885 0-12.547-1.074-20.969-3.223-25.265-2.105-4.34-5.285-6.51-9.539-6.51-4.34 0-7.476 2.213-9.41 6.639-1.933 4.382-2.9 12.525-2.9 24.427ZM177.182 48.469c0-17.961 3.222-30.53 9.668-37.705C193.338 3.588 203.199 0 216.434 0c6.359 0 11.58.795 15.662 2.385 4.082 1.547 7.412 3.588 9.99 6.123 2.578 2.492 4.598 5.135 6.059 7.928 1.503 2.75 2.707 5.972 3.609 9.668 1.762 7.046 2.642 14.394 2.642 22.043 0 17.144-2.9 29.69-8.701 37.64-5.8 7.95-15.791 11.924-29.97 11.924-7.95 0-14.373-1.268-19.272-3.803-4.898-2.535-8.916-6.252-12.053-11.15-2.277-3.48-4.06-8.229-5.349-14.244-1.246-6.059-1.869-12.74-1.869-20.045Zm26.039.064c0 12.032 1.052 20.26 3.158 24.686 2.148 4.383 5.242 6.574 9.281 6.574 2.664 0 4.963-.924 6.897-2.772 1.976-1.89 3.416-4.855 4.318-8.894.945-4.04 1.418-10.334 1.418-18.885 0-12.547-1.074-20.969-3.223-25.265-2.105-4.34-5.285-6.51-9.539-6.51-4.34 0-7.476 2.213-9.41 6.639-1.933 4.382-2.9 12.525-2.9 24.427Z"
    />
    <path
    fill="#3E76BB"
    d="M154.862 143.811c1.412-.248 3.859-.692 5.77-1.111 1.148-.252 1.771-.538 2.107-.788.011.042.022.082.029.12a.405.405 0 0 1-.272.468 68.251 68.251 0 0 1-7.411 1.98.283.283 0 0 1-.27-.083.28.28 0 0 1-.071-.128.278.278 0 0 1 .001-.146c.031-.106.071-.211.117-.312Z"
    />
    <path
    fill="#190D44"
    d="M160.633 142.703c-1.91.419-4.357.862-5.768 1.11.907-2.022 4.91-4.287 4.91-4.287l1.215-.323c1.162.982 1.592 2.095 1.749 2.714-.335.25-.958.534-2.106.786Z"
    />
    <path
    fill="#F4D3C1"
    d="m160.663 137.172.493 2.275a.531.531 0 0 1-.308.599 2.065 2.065 0 0 1-.934.168.637.637 0 0 1-.534-.358l-1.052-2.24 2.335-.444Z"
    />
    <path
    fill="#3E76BB"
    d="M140.184 144.646c1.428.123 3.908.323 5.863.408 1.175.052 1.852-.063 2.241-.218 0 .043 0 .085-.003.123a.404.404 0 0 1-.385.381 68.772 68.772 0 0 1-7.675.007.287.287 0 0 1-.236-.431c.059-.094.124-.185.195-.27Z"
    />
    <path
    fill="#190D44"
    d="M146.047 145.054c-1.955-.085-4.435-.285-5.863-.408 1.404-1.717 5.863-2.875 5.863-2.875h1.259c.866 1.244.992 2.428.982 3.065-.389.155-1.066.27-2.241.218Z"
    />
    <path
    fill="#F4D3C1"
    d="m147.518 139.724-.118 2.322a.529.529 0 0 1-.455.499 2.064 2.064 0 0 1-.946-.078.622.622 0 0 1-.424-.482l-.432-2.431 2.375.17Z"
    />
    <path
    fill="#177AE2"
    fillOpacity=".22"
    d="M123.446 150.999c33.395 0 60.467-1.572 60.467-3.511s-27.072-3.511-60.467-3.511c-33.396 0-60.468 1.572-60.468 3.511s27.072 3.511 60.468 3.511Z"
    />
    <path
    fill="#1158A3"
    d="M84.6 123.476h12.107v20.378c0 .527 3.142.754 3.027 1.126-.114.373-.838.861-1 .861H85.21c-.162 0-.317-.21-.431-.582-.115-.373-.179-.878-.179-1.405v-20.378ZM84.808 123.435h28.346l-3.487-4.438c-.383-.487-1.331-.881-2.12-.881H82.055c-.786 0-1.117.394-.733.881l3.486 4.438Z"
    />
    <path
    fill="#177AE2"
    d="M124.864 123.435H96.522l3.487-2.894c.383-.31 1.331-.573 2.12-.573h25.489c.789 0 1.117.257.733.573l-3.487 2.894ZM96.707 123.476h28.158v20.358c0 .532-.213 1.042-.591 1.419a2.027 2.027 0 0 1-1.427.588H98.531c-.536 0-1.391.028-1.824 0v-22.365Z"
    />
    <path fill="#fff" d="M88.326 123.435v14.109l.98-.769.689.769.599-.856.614.856.854-.645.942.645v-14.109h-4.678Z" />
    <path
    fill="#C8DEF4"
    d="m112.365 103.647 16.616-20.653-22.124-18.473L92.2 81.248l-2.183 4.184a1.164 1.164 0 0 0 .146 1.703l19.96 16.667a1.657 1.657 0 0 0 2.242-.155Z"
    />
    <path
    fill="#fff"
    d="m100.969 88.419-2.392 3.83.964.205.324.89.643.037.293.757.786.23.602.948 2.392-3.83-3.612-3.067Z"
    />
    <path
    fill="#B2CDE9"
    d="m128.258 82.39-14.901 16.53 6.168.456 14.671-16.726-5.938-.26ZM100.923 64.264 86.019 80.795l6.171.453 14.667-16.724-5.934-.26Z"
    />
    <path
    fill="#000"
    d="m123.67 87.482 4.588-5.093-21.401-17.865-2.741 6.56 19.554 16.398ZM92.19 81.248l14.667-16.724-2.741 6.56-10.326 11.5-1.6-1.336Z"
    />
    <path
    fill="#F4D3C1"
    d="M140.553 53.883c.137 1.644.545 4.652 1.521 5.347 0 0-.23 1.976-3.742 2.481-3.848.565-2.121-1.631-2.121-1.631 2.024-.807 1.741-2.348 1.161-3.75l1.484-1.693c.571-.627 1.622-1.595 1.697-.754Z"
    />
    <path
    fill="#FFC3BD"
    d="M146.567 59.59c.758.691 1.413 1.383 2.093 2.106.68.722 1.31 1.47 1.921 2.267.638.81 1.218 1.664 1.734 2.556.282.491.526 1.003.73 1.532.053.145.106.285.149.443.052.16.094.323.128.487l.053.258.038.285c.035.261.035.526 0 .788a3.279 3.279 0 0 1-.537 1.377 4.574 4.574 0 0 1-.717.822 8.34 8.34 0 0 1-1.422 1.033c-.897.51-1.836.945-2.807 1.3a33.95 33.95 0 0 1-5.67 1.55l-.545-1.861c1.693-.729 3.408-1.517 4.99-2.357a18.97 18.97 0 0 0 2.217-1.359c.294-.208.565-.447.808-.713.073-.079.135-.168.184-.264.025-.052 0-.046-.032.066-.021.207-.018.046-.068-.066a4.989 4.989 0 0 0-.169-.412 9.817 9.817 0 0 0-.564-.983 23.535 23.535 0 0 0-1.559-2.05 53.509 53.509 0 0 0-1.8-2.01c-.62-.66-1.272-1.328-1.871-1.942l2.716-2.853Z"
    />
    <path
    fill="#FFC3BD"
    d="m142.429 74.238-2.455.739 1.578 2.58s1.451-.596 1.772-1.82l-.895-1.499ZM138.983 75.891l.967 2.128 1.588-.459-1.579-2.58-.976.911Z"
    />
    <path
    fill="#F1EEEE"
    d="M140.816 60.29c-.233 2.482 8.935 9.457 8.935 9.457l-2.351 1.551 2.183 4.206 5.087-4.988s-4.788-9.599-7.485-11.326c-2.901-1.846-6.075-1.982-6.369 1.1Z"
    />
    <path
    fill="#F1EEEE"
    d="M132.178 60.092s-1.946 63.055 3.468 81.72l32.019-5.583c-.196-1.892-21.085-66.162-21.16-75.185a3.223 3.223 0 0 0-2.126-3.001 3.26 3.26 0 0 0-1.286-.193c-.399.021-.811.05-1.219.09a51.574 51.574 0 0 0-5.851.859 26.474 26.474 0 0 0-3.845 1.293Z"
    />
    <path
    fill="#000"
    d="m131.841 66.09.047-.052 3.237.285c.493 2.078-1.31 4.913-2.261 6.228a60.26 60.26 0 0 1-1.023-6.46Z"
    />
    <path
    fill="#F4D3C1"
    d="M140.213 50.173c.573 2.503 1.035 3.94.159 5.583-1.316 2.447-5.676 1.967-6.989-.31-1.185-2.053-.951-5.558 1.182-7.245a3.532 3.532 0 0 1 3.375-.575 3.52 3.52 0 0 1 2.273 2.547Z"
    />
    <path
    fill="#F4D3C1"
    d="M136.505 51.886c.179.612.15 1.266-.081 1.86-.312.779-1.004.62-1.366-.052-.312-.62-.549-1.747-.019-2.308.53-.561 1.242-.236 1.466.5Z"
    />
    <path
    fill="#FFC3BD"
    d="M134.458 64.453c-.487.77-.98 1.46-1.491 2.171a52.022 52.022 0 0 1-1.594 2.078 39.292 39.292 0 0 1-3.608 3.914c-.349.31-.671.62-1.048.903l-.274.22-.138.108c-.05.04-.071.063-.174.137-.309.22-.649.393-1.008.515a5.885 5.885 0 0 1-1.724.31 9.673 9.673 0 0 1-1.488-.065 18.82 18.82 0 0 1-5.224-1.47l.54-1.861c1.596.188 3.203.265 4.809.23a9.576 9.576 0 0 0 1.06-.115c.265-.039.522-.118.761-.236.075-.04.116-.08.106-.09-.009-.01.041-.04.069-.068l.106-.097.209-.195c.281-.248.546-.549.82-.822.54-.577 1.076-1.17 1.584-1.799.509-.63 1.023-1.262 1.522-1.913.499-.652.983-1.312 1.469-1.973.487-.66.961-1.355 1.41-1.997l3.306 2.115Z"
    />
    <path
    fill="#F1EEEE"
    d="M136.27 63.631c1.047 3.412-10.857 11.882-10.857 11.882l-7.581-.056.103-4.816 4.965.74s5.467-7.772 7.644-10.126c2.7-2.909 4.927-.22 5.726 2.376Z"
    />
    <path
    fill="#F4D3C1"
    d="m118.145 71.528-3.204-.584.337 2.755s1.666.93 2.873-.525l-.006-1.646ZM113.706 71.565l.693 1.988.873.149-.337-2.757-1.229.62Z"
    />
    <path
    fill="#190D44"
    d="M140.753 55.817s.184.12-1.166-.026c-1.351-.146-2.929-3.041-3.497-3.205-.569-.163-.587-.496-.587-.496l-.576-1.242s-1.122-.871-1.966-1.472c-.843-.602 1.794-4.523 6.142-3.23 0 0 4.277 1.249 4.249 3.112-.028 1.864-1.905 5.597-2.599 6.559Z"
    />
    <path
    fill="#F4D3C1"
    d="M138.484 53.42c-.331.623-1.093.868-1.698.552-.606-.317-.829-1.076-.496-1.7.333-.622 1.093-.867 1.699-.55.605.317.827 1.077.495 1.699Z"
    />
    <path
    fill="#190D44"
    d="M140.92 48.334s3.855-.511.285 6.254l-.285-6.254ZM137.776 49.518s-3.815.111-5.845.408c0 0-2.137-.284-1.597-1.66.428-1.084 2.166-.677 2.166-.677s.268-1.381.892-1.801c.748-.504 2.93-1.569 5.725 1.206l-1.341 2.524Z"
    />
</svg>
